<svg width="62" height="62" viewBox="0 0 62 62" fill="none" xmlns="http://www.w3.org/2000/svg">
<path fill-rule="evenodd" clip-rule="evenodd" d="M31.0002 6.16675C44.7152 6.16675 55.8335 17.285 55.8335 31.0001C55.8335 44.7152 44.7152 55.8334 31.0002 55.8334C17.2851 55.8334 6.16681 44.7152 6.16681 31.0001C6.16681 17.285 17.2851 6.16675 31.0002 6.16675ZM57.8335 31.0001C57.8335 16.1804 45.8198 4.16675 31.0002 4.16675C16.1805 4.16675 4.16681 16.1804 4.16681 31.0001C4.16681 45.8197 16.1805 57.8334 31.0002 57.8334C45.8198 57.8334 57.8335 45.8197 57.8335 31.0001Z" />
<path fill-rule="evenodd" clip-rule="evenodd" d="M26.7503 22.293C26.3598 22.6835 26.3598 23.3167 26.7503 23.7072L34.2931 31.6642C34.6836 32.0547 35.3167 32.0547 35.7073 31.6642C36.0978 31.2737 36.0978 30.6405 35.7073 30.25L28.1645 22.293C27.774 21.9025 27.1408 21.9025 26.7503 22.293Z"/>
<path fill-rule="evenodd" clip-rule="evenodd" d="M35.7073 30.25C35.3167 29.8595 34.6836 29.8595 34.2931 30.25L26.7503 37.793C26.3598 38.1835 26.3598 38.8167 26.7503 39.2072C27.1408 39.5977 27.774 39.5977 28.1645 39.2072L35.7073 31.6642C36.0978 31.2737 36.0978 30.6405 35.7073 30.25Z"/>
</svg>
