<svg width="32" height="33" viewBox="0 0 32 33" fill="none" xmlns="http://www.w3.org/2000/svg">
<path fill-rule="evenodd" clip-rule="evenodd" d="M27.3868 22.5541C26.8661 23.0748 26.0219 23.0748 25.5012 22.5541L14.8918 12.4971C14.3711 11.9764 14.3711 11.1322 14.8918 10.6115C15.4125 10.0908 16.2568 10.0908 16.7775 10.6115L27.3868 20.6684C27.9075 21.1891 27.9075 22.0334 27.3868 22.5541Z" fill="white"/>
<path fill-rule="evenodd" clip-rule="evenodd" d="M16.7775 10.6115C17.2982 11.1322 17.2982 11.9764 16.7775 12.4971L6.72015 22.5541C6.19945 23.0748 5.35524 23.0748 4.83454 22.5541C4.31384 22.0334 4.31384 21.1891 4.83454 20.6684L14.8918 10.6115C15.4125 10.0908 16.2568 10.0908 16.7775 10.6115Z" fill="white"/>
</svg>
