<svg width="59" height="58" viewBox="0 0 59 58" fill="none" xmlns="http://www.w3.org/2000/svg">
<path fill-rule="evenodd" clip-rule="evenodd" d="M29.8534 3.68652C15.8732 3.68652 4.54004 15.0197 4.54004 28.9999C4.54004 42.9801 15.8732 54.3132 29.8534 54.3132C43.8336 54.3132 55.1667 42.9801 55.1667 28.9999C55.1667 15.0197 43.8336 3.68652 29.8534 3.68652ZM37.9575 19.9126C37.9575 24.3901 34.3309 28.0167 29.8534 28.0167C25.3759 28.0167 21.7493 24.3901 21.7493 19.9126C21.7493 15.4351 25.3759 11.8085 29.8534 11.8085C34.3309 11.8085 37.9575 15.4351 37.9575 19.9126ZM13.6451 40.1729C13.6451 34.7837 24.4439 32.0688 29.8534 32.0688C35.2629 32.0688 46.0616 34.7837 46.0616 40.1729V44.225H13.6451V40.1729Z" fill="white"/>
</svg>
